<mxfile host="app.diagrams.net" modified="2020-10-19T17:42:41.446Z" agent="5.0 (Macintosh; Intel Mac OS X 10_15_7) AppleWebKit/537.36 (KHTML, like Gecko) Chrome/86.0.4240.80 Safari/537.36" etag="FoVK9fyL6Gn9d8BWegFP" version="13.7.9" type="github">
  <diagram id="hovLEJ-dNR2mSK_s2hqZ" name="Page-1">
    <mxGraphModel dx="622" dy="447" grid="1" gridSize="10" guides="1" tooltips="1" connect="1" arrows="1" fold="1" page="1" pageScale="1" pageWidth="850" pageHeight="1100" math="0" shadow="0">
      <root>
        <mxCell id="0" />
        <mxCell id="1" parent="0" />
        <mxCell id="yNtRE2YVVB5kZNCRv-Dg-1" value="Restaurants" style="whiteSpace=wrap;html=1;aspect=fixed;" vertex="1" parent="1">
          <mxGeometry x="40" y="120" width="200" height="200" as="geometry" />
        </mxCell>
        <mxCell id="yNtRE2YVVB5kZNCRv-Dg-2" value="Users" style="whiteSpace=wrap;html=1;aspect=fixed;" vertex="1" parent="1">
          <mxGeometry x="400" y="120" width="200" height="200" as="geometry" />
        </mxCell>
        <mxCell id="yNtRE2YVVB5kZNCRv-Dg-3" value="" style="endArrow=ERmany;html=1;entryX=-0.01;entryY=0.54;entryDx=0;entryDy=0;entryPerimeter=0;endFill=0;" edge="1" parent="1" target="yNtRE2YVVB5kZNCRv-Dg-2">
          <mxGeometry width="50" height="50" relative="1" as="geometry">
            <mxPoint x="240" y="230" as="sourcePoint" />
            <mxPoint x="290" y="180" as="targetPoint" />
          </mxGeometry>
        </mxCell>
        <mxCell id="yNtRE2YVVB5kZNCRv-Dg-4" value="&lt;u&gt;attributes&lt;br&gt;&lt;/u&gt;name&lt;br&gt;address&lt;br&gt;&lt;br&gt;has_many reviews&lt;br&gt;" style="text;html=1;align=center;verticalAlign=middle;resizable=0;points=[];autosize=1;" vertex="1" parent="1">
          <mxGeometry x="55" y="330" width="110" height="80" as="geometry" />
        </mxCell>
      </root>
    </mxGraphModel>
  </diagram>
</mxfile>
